<?xml version="1.0" encoding="UTF-8"?>
<!DOCTYPE svg PUBLIC "-//W3C//DTD SVG 1.1//EN" "http://www.w3.org/Graphics/SVG/1.1/DTD/svg11.dtd">
<!-- Creator: CorelDRAW (Versión OEM) -->
<svg xmlns="http://www.w3.org/2000/svg" xml:space="preserve" width="48.2135mm" height="21.4698mm" version="1.1" style="shape-rendering:geometricPrecision; text-rendering:geometricPrecision; image-rendering:optimizeQuality; fill-rule:evenodd; clip-rule:evenodd"
viewBox="0 0 499.05 222.23"
 xmlns:xlink="http://www.w3.org/1999/xlink"
 xmlns:xodm="http://www.corel.com/coreldraw/odm/2003">
 <defs>
  <style type="text/css">
   <![CDATA[
    .fil0 {fill:#FEFEFE;fill-rule:nonzero}
   ]]>
  </style>
 </defs>
 <g id="Capa_x0020_1">
  <metadata id="CorelCorpID_0Corel-Layer"/>
  <path class="fil0" d="M91.27 174.27l-1.54 5.77 -28.19 32.37 -61.54 9.82 0 -126.95 4.35 -16.32 61.06 -9.75 25.86 16.65 0 -5.15 4.35 -16.32 45.75 -7.3 0 85.54 33.6 -5.36 0 -69.92 4.35 -16.32 45.75 -7.3 0 29.61 30.05 -34.4 61.38 -9.8 0 5.52 1.54 -5.76 89.57 -14.3 0 6.1 1.7 -6.37 89.73 -14.32 0 51.23 -4.35 16.32 -19.65 22.47 0 40.76 -4.35 16.32 -45.75 7.3 0 -47.85 -17.32 2.77 0 32.22 -4.35 16.32 -311.99 49.8 0 -33.39zm400.84 -124.77l0 -41.46 -31.9 5.09 0 37.7 -11.92 1.9 0 -37.7 -31.9 5.09 0 65.25 19.97 -3.19 0 47.85 31.74 -5.06 0 -47.82 24 -27.65zm-91.43 86.23l0 -57.19 -17.56 2.8 17.56 -20.52 0 -38.18 -31.9 5.09 0 34.32 -11.92 13.82 0 -46.24 -31.74 5.07 0 113.09 31.74 -5.07 0 -45.43 11.92 -1.9 0 45.43 31.9 -5.09zm-91.11 14.54l0 -113.09 -51.39 8.2 -24.33 27.62 0 89.36 31.74 -5.07 0 -85.54 11.92 -1.9 0 85.54 32.06 -5.12zm-91.43 14.59l0 -113.09 -31.74 5.07 0 113.09 31.74 -5.07zm-47.45 7.57l0 -27.55 -36.25 5.79 0 -85.55 -31.74 5.07 0 113.09 67.98 -10.85zm-83.54 -10.51l0 -33.51 -17.72 2.83 17.72 -20.42 0 -18.71 -24.19 -15.58 -51.53 8.22 0 113.09 51.6 -8.24 24.11 -27.69zm-32.06 -38.54l-11.92 1.9 0 -18.04 11.92 -1.9 0 18.04zm0 39.95l-11.92 1.9 0 -20.3 11.92 -1.9 0 20.3z"/>
 </g>
</svg>
